<svg xmlns="http://www.w3.org/2000/svg" viewBox="0 0 108 108">
      <g transform="translate(4,2) scale(0.62)">
        <path d="M50,14 C46.7,14 44,16.7 44,20 L44,22.3 C33.6,25.1 26,34.6 26,46 L26,62 C26,66.5 23.8,70.7 20.1,73.3 L18,74.8 L18,80 L82,80 L82,74.8 L79.9,73.3 C76.2,70.7 74,66.5 74,62 L74,46 C74,34.6 66.4,25.1 56,22.3 L56,20 C56,16.7 53.3,14 50,14 Z" fill="#F4F1EA"/><rect x="18" y="80" width="64" height="7" rx="3.5" fill="#F4F1EA"/><circle cx="50" cy="90" r="7" fill="#F4F1EA"/>
        
    <circle cx="74" cy="78" r="13" fill="#E7B25C"/>
    <path d="M67.5,78 L72.44,83.2 L81.15,73.06"
          stroke="#134E4A" stroke-width="3.12" fill="none"
          stroke-linecap="round" stroke-linejoin="round"/>
    
      </g>
    </svg>